<mxfile host="app.diagrams.net" modified="2024-06-05T03:23:48.591Z" agent="Mozilla/5.0 (Macintosh; Intel Mac OS X 10_15_7) AppleWebKit/537.36 (KHTML, like Gecko) Chrome/125.0.0.0 Safari/537.36" etag="PMTHZu7WzRAvL-q1FfPZ" version="24.4.13" type="github">
  <diagram name="第 1 页" id="vDpjsyeC_ozAWD-NiC2U">
    <mxGraphModel dx="984" dy="645" grid="1" gridSize="10" guides="1" tooltips="1" connect="1" arrows="1" fold="1" page="1" pageScale="1" pageWidth="827" pageHeight="1169" math="0" shadow="0">
      <root>
        <mxCell id="0" />
        <mxCell id="1" parent="0" />
        <mxCell id="B-cdAZd7W55nBaKDccPK-4" value="Prometheus" style="shape=cylinder3;whiteSpace=wrap;html=1;boundedLbl=1;backgroundOutline=1;size=15;fillColor=#f8cecc;strokeColor=#b85450;" vertex="1" parent="1">
          <mxGeometry x="180" y="400" width="120" height="70" as="geometry" />
        </mxCell>
        <mxCell id="B-cdAZd7W55nBaKDccPK-6" value="阿里云SLS" style="ellipse;shape=cloud;whiteSpace=wrap;html=1;fillColor=#dae8fc;strokeColor=#6c8ebf;" vertex="1" parent="1">
          <mxGeometry x="450" y="395" width="120" height="80" as="geometry" />
        </mxCell>
        <mxCell id="B-cdAZd7W55nBaKDccPK-13" value="APP端异常上报平台：异常数据加工，异步上报" style="rounded=0;whiteSpace=wrap;html=1;fillColor=#f5f5f5;fontColor=#333333;strokeColor=#666666;" vertex="1" parent="1">
          <mxGeometry x="160" y="250" width="450" height="80" as="geometry" />
        </mxCell>
        <mxCell id="B-cdAZd7W55nBaKDccPK-14" value="" style="shape=flexArrow;endArrow=classic;html=1;rounded=0;" edge="1" parent="1">
          <mxGeometry width="50" height="50" relative="1" as="geometry">
            <mxPoint x="374.5" y="340" as="sourcePoint" />
            <mxPoint x="374.5" y="410" as="targetPoint" />
          </mxGeometry>
        </mxCell>
        <mxCell id="B-cdAZd7W55nBaKDccPK-15" value="Android" style="rounded=1;whiteSpace=wrap;html=1;" vertex="1" parent="1">
          <mxGeometry x="160" y="10" width="210" height="60" as="geometry" />
        </mxCell>
        <mxCell id="B-cdAZd7W55nBaKDccPK-16" value="IOS" style="rounded=1;whiteSpace=wrap;html=1;" vertex="1" parent="1">
          <mxGeometry x="410" y="10" width="180" height="60" as="geometry" />
        </mxCell>
        <mxCell id="B-cdAZd7W55nBaKDccPK-17" value="客户端异常上报SDK" style="rounded=0;whiteSpace=wrap;html=1;fillColor=#f5f5f5;fontColor=#333333;strokeColor=#666666;" vertex="1" parent="1">
          <mxGeometry x="160" y="80" width="430" height="60" as="geometry" />
        </mxCell>
        <mxCell id="B-cdAZd7W55nBaKDccPK-18" value="" style="shape=flexArrow;endArrow=classic;html=1;rounded=0;" edge="1" parent="1">
          <mxGeometry width="50" height="50" relative="1" as="geometry">
            <mxPoint x="374.5" y="160" as="sourcePoint" />
            <mxPoint x="374.5" y="230" as="targetPoint" />
          </mxGeometry>
        </mxCell>
        <mxCell id="B-cdAZd7W55nBaKDccPK-19" value="Grafana数据展示大盘" style="rounded=0;whiteSpace=wrap;html=1;fillColor=#fff2cc;strokeColor=#d6b656;" vertex="1" parent="1">
          <mxGeometry x="60" y="10" width="70" height="450" as="geometry" />
        </mxCell>
        <mxCell id="B-cdAZd7W55nBaKDccPK-20" value="小蜜蜂告警平台监控告警" style="rounded=0;whiteSpace=wrap;html=1;fillColor=#f8cecc;strokeColor=#b85450;" vertex="1" parent="1">
          <mxGeometry x="640" y="10" width="60" height="460" as="geometry" />
        </mxCell>
      </root>
    </mxGraphModel>
  </diagram>
</mxfile>
